<?xml version="1.0" encoding="UTF-8" standalone="no"?>
<!-- Created with Inkscape (http://www.inkscape.org/) -->

<svg
   width="110.65856mm"
   height="110.65856mm"
   viewBox="0 0 110.65856 110.65857"
   version="1.1"
   id="svg5"
   inkscape:version="1.1.1 (3bf5ae0d25, 2021-09-20)"
   sodipodi:docname="icon.svg"
   inkscape:export-filename="X:\new-budget-app\src\frontend\public\logo512.png"
   inkscape:export-xdpi="117.52186"
   inkscape:export-ydpi="117.52186"
   xmlns:inkscape="http://www.inkscape.org/namespaces/inkscape"
   xmlns:sodipodi="http://sodipodi.sourceforge.net/DTD/sodipodi-0.dtd"
   xmlns="http://www.w3.org/2000/svg"
   xmlns:svg="http://www.w3.org/2000/svg">
  <sodipodi:namedview
     id="namedview7"
     pagecolor="#ffffff"
     bordercolor="#666666"
     borderopacity="1.0"
     inkscape:pageshadow="2"
     inkscape:pageopacity="0.0"
     inkscape:pagecheckerboard="0"
     inkscape:document-units="mm"
     showgrid="false"
     inkscape:zoom="1.5554293"
     inkscape:cx="198.98044"
     inkscape:cy="160.08442"
     inkscape:window-width="2560"
     inkscape:window-height="1330"
     inkscape:window-x="-12"
     inkscape:window-y="-12"
     inkscape:window-maximized="1"
     inkscape:current-layer="layer1"
     fit-margin-top="0"
     fit-margin-left="0"
     fit-margin-right="0"
     fit-margin-bottom="0" />
  <defs
     id="defs2">
    <filter
       inkscape:collect="always"
       style="color-interpolation-filters:sRGB"
       id="filter16273"
       x="-0.4063143"
       y="-0.40282162"
       width="1.8126286"
       height="1.8056432">
      <feGaussianBlur
         inkscape:collect="always"
         stdDeviation="6.9415334"
         id="feGaussianBlur16275" />
    </filter>
  </defs>
  <g
     inkscape:label="Layer 1"
     inkscape:groupmode="layer"
     id="layer1"
     transform="translate(-77.942116,-95.984283)">
    <rect
       style="fill:#0e1215;fill-opacity:1;stroke:none;stroke-width:0.499999;stroke-miterlimit:4;stroke-dasharray:none;stroke-opacity:1"
       id="rect16593"
       width="21.092783"
       height="19.221649"
       x="133.56583"
       y="135.27809" />
    <g
       id="g15767">
      <path
         style="fill:#212121;fill-opacity:1;stroke:#000000;stroke-width:0.463943;stroke-linecap:butt;stroke-linejoin:miter;stroke-miterlimit:4;stroke-dasharray:none;stroke-opacity:1"
         d="m 159.92775,100.82403 2.52863,-3.467072 0.34019,0.179698 -1.19062,4.097074 z"
         id="path15046"
         sodipodi:nodetypes="ccccc" />
      <path
         style="fill:#212121;fill-opacity:1;stroke:#000000;stroke-width:0.463943;stroke-linecap:butt;stroke-linejoin:miter;stroke-miterlimit:4;stroke-dasharray:none;stroke-opacity:1"
         d="m 158.84248,102.66731 0.94995,-2.44469 2.29161,1.18982 -1.68678,2.33797 z"
         id="path15044" />
      <path
         style="fill:#212121;fill-opacity:1;stroke:#000000;stroke-width:0.463943;stroke-linecap:butt;stroke-linejoin:miter;stroke-miterlimit:4;stroke-dasharray:none;stroke-opacity:1"
         d="m 157.78414,104.78399 0.94995,-2.44469 2.29161,1.18982 -1.68678,2.33797 z"
         id="path15042" />
      <path
         style="fill:#212121;fill-opacity:1;stroke:#000000;stroke-width:0.5;stroke-linecap:butt;stroke-linejoin:miter;stroke-miterlimit:4;stroke-dasharray:none;stroke-opacity:1"
         d="m 156.93458,107.70229 0.40591,-2.7973 2.69461,0.69486 -1.20555,2.86358 z"
         id="path15040" />
      <path
         style="fill:#212121;fill-opacity:1;stroke:#000000;stroke-width:0.5;stroke-linecap:butt;stroke-linejoin:miter;stroke-miterlimit:4;stroke-dasharray:none;stroke-opacity:1"
         d="m 155.87624,110.34814 0.40591,-2.7973 2.69461,0.69486 -1.20555,2.86358 z"
         id="path15038" />
      <path
         style="fill:#212121;fill-opacity:1;stroke:#000000;stroke-width:0.5;stroke-linecap:butt;stroke-linejoin:miter;stroke-miterlimit:4;stroke-dasharray:none;stroke-opacity:1"
         d="m 155.49921,113.20932 v -2.8266 l 2.76646,0.3007 -0.78183,3.00703 z"
         id="path15036" />
      <path
         style="fill:#212121;fill-opacity:1;stroke:#000000;stroke-width:0.5;stroke-linecap:butt;stroke-linejoin:miter;stroke-miterlimit:4;stroke-dasharray:none;stroke-opacity:1"
         d="m 154.97004,116.38434 v -2.8266 l 2.76646,0.3007 -0.78183,3.00703 z"
         id="path15034" />
      <path
         style="fill:#212121;fill-opacity:1;stroke:#000000;stroke-width:0.5;stroke-linecap:butt;stroke-linejoin:miter;stroke-miterlimit:4;stroke-dasharray:none;stroke-opacity:1"
         d="m 154.44087,119.55936 v -2.8266 l 2.76646,0.3007 -0.78183,3.00703 z"
         id="path14721" />
    </g>
    <g
       id="g15785"
       transform="matrix(-0.28670688,-0.95801835,-0.95801835,0.28670688,326.76941,245.38168)">
      <path
         style="fill:#212121;fill-opacity:1;stroke:#000000;stroke-width:0.463943;stroke-linecap:butt;stroke-linejoin:miter;stroke-miterlimit:4;stroke-dasharray:none;stroke-opacity:1"
         d="m 159.92775,100.82403 2.52863,-3.467072 0.34019,0.179698 -1.19062,4.097074 z"
         id="path15769"
         sodipodi:nodetypes="ccccc" />
      <path
         style="fill:#212121;fill-opacity:1;stroke:#000000;stroke-width:0.463943;stroke-linecap:butt;stroke-linejoin:miter;stroke-miterlimit:4;stroke-dasharray:none;stroke-opacity:1"
         d="m 158.84248,102.66731 0.94995,-2.44469 2.29161,1.18982 -1.68678,2.33797 z"
         id="path15771" />
      <path
         style="fill:#212121;fill-opacity:1;stroke:#000000;stroke-width:0.463943;stroke-linecap:butt;stroke-linejoin:miter;stroke-miterlimit:4;stroke-dasharray:none;stroke-opacity:1"
         d="m 157.78414,104.78399 0.94995,-2.44469 2.29161,1.18982 -1.68678,2.33797 z"
         id="path15773" />
      <path
         style="fill:#212121;fill-opacity:1;stroke:#000000;stroke-width:0.5;stroke-linecap:butt;stroke-linejoin:miter;stroke-miterlimit:4;stroke-dasharray:none;stroke-opacity:1"
         d="m 156.93458,107.70229 0.40591,-2.7973 2.69461,0.69486 -1.20555,2.86358 z"
         id="path15775" />
      <path
         style="fill:#212121;fill-opacity:1;stroke:#000000;stroke-width:0.5;stroke-linecap:butt;stroke-linejoin:miter;stroke-miterlimit:4;stroke-dasharray:none;stroke-opacity:1"
         d="m 155.87624,110.34814 0.40591,-2.7973 2.69461,0.69486 -1.20555,2.86358 z"
         id="path15777" />
      <path
         style="fill:#212121;fill-opacity:1;stroke:#000000;stroke-width:0.5;stroke-linecap:butt;stroke-linejoin:miter;stroke-miterlimit:4;stroke-dasharray:none;stroke-opacity:1"
         d="m 155.49921,113.20932 v -2.8266 l 2.76646,0.3007 -0.78183,3.00703 z"
         id="path15779" />
      <path
         style="fill:#212121;fill-opacity:1;stroke:#000000;stroke-width:0.5;stroke-linecap:butt;stroke-linejoin:miter;stroke-miterlimit:4;stroke-dasharray:none;stroke-opacity:1"
         d="m 154.97004,116.38434 v -2.8266 l 2.76646,0.3007 -0.78183,3.00703 z"
         id="path15781" />
      <path
         style="fill:#212121;fill-opacity:1;stroke:#000000;stroke-width:0.5;stroke-linecap:butt;stroke-linejoin:miter;stroke-miterlimit:4;stroke-dasharray:none;stroke-opacity:1"
         d="m 154.44087,119.55936 v -2.8266 l 2.76646,0.3007 -0.78183,3.00703 z"
         id="path15783" />
    </g>
    <ellipse
       style="mix-blend-mode:normal;fill:#ffef45;fill-opacity:0.556391;stroke:#000000;stroke-width:0.499999;stroke-miterlimit:4;stroke-dasharray:none;stroke-opacity:1;filter:url(#filter16273)"
       id="path15809"
       cx="96.224846"
       cy="190.94615"
       rx="20.80862"
       ry="20.989042" />
    <g
       id="g14686"
       transform="rotate(45.686128,78.992003,270.86942)">
      <path
         style="fill:#23282d;fill-opacity:1;stroke:#000000;stroke-width:0.5;stroke-linecap:butt;stroke-linejoin:miter;stroke-miterlimit:4;stroke-dasharray:none;stroke-opacity:1"
         d="m 32.829896,141.35567 c 0,0 -2.041236,-6.46392 -12.757731,-5.35825 -10.716495,1.10567 -11.1417527,27.5567 -7.654639,39.20876 3.487113,11.65207 9.695876,28.74742 13.438144,32.74485 3.742267,3.99742 8.420103,6.54897 14.798969,-0.25516 6.378866,-6.80412 13.353092,-19.3067 15.479381,-29.34278 2.126287,-10.03608 2.126287,-22.19845 1.786083,-26.87629 -0.340206,-4.67783 -2.041239,-12.16237 -5.528352,-14.0335 -3.487113,-1.87114 -7.802034,-1.93512 -12.417525,-1.27577 -5.358247,0.76546 -7.14433,5.18814 -7.14433,5.18814 z"
         id="path113"
         sodipodi:nodetypes="cssssssssc" />
      <path
         style="fill:#343635;fill-opacity:1;stroke:#000000;stroke-width:0.5;stroke-linecap:butt;stroke-linejoin:miter;stroke-miterlimit:4;stroke-dasharray:none;stroke-opacity:1"
         d="m 17.095361,118.56185 c 0,0 6.889175,-11.3969 15.989689,-10.80154 9.100516,0.59536 14.033505,6.03866 16.329898,9.69587 2.296393,3.65722 7.144329,16.41495 3.82732,18.03093 -3.31701,1.61598 -12.077319,-0.68041 -19.136598,-0.68041 -7.059279,0 -17.095361,3.48711 -18.796392,1.53093 -4.032632,-6.74429 1.310662,-17.23228 1.786084,-17.77578 z"
         id="path285"
         sodipodi:nodetypes="cssssccc" />
      <path
         style="fill:#e1b851;fill-opacity:1;stroke:#000000;stroke-width:0.264583px;stroke-linecap:butt;stroke-linejoin:miter;stroke-opacity:1"
         d="m 37.979271,134.94117 c 0,0 10.163748,0.6014 6.615457,-7.21687 -3.548291,-7.81826 -9.802905,-15.15541 -9.802905,-17.56103 0,-2.40562 5.412646,0.78183 9.442062,5.29237 4.029415,4.51054 9.562344,11.24627 8.419674,13.59176 -1.14267,2.34548 -2.104919,5.3525 -6.074193,5.71334 -3.969276,0.36085 -8.600095,0.18043 -8.600095,0.18043 z"
         id="path1017"
         sodipodi:nodetypes="csssssc" />
      <path
         style="fill:#e1b851;fill-opacity:1;stroke:#000000;stroke-width:0.264583px;stroke-linecap:butt;stroke-linejoin:miter;stroke-opacity:1"
         d="m 28.278492,134.95534 c 0,0 -10.163748,0.6014 -6.615457,-7.21687 3.548291,-7.81826 9.863045,-15.27569 9.863045,-17.68131 0,-2.40562 -5.472786,0.90211 -9.502202,5.41265 -4.029415,4.51054 -9.562344,11.24627 -8.419674,13.59176 1.14267,2.34548 2.104919,5.3525 6.074193,5.71334 3.969276,0.36085 8.600095,0.18043 8.600095,0.18043 z"
         id="path1019"
         sodipodi:nodetypes="csssssc" />
      <path
         style="fill:#e98f37;fill-opacity:1;stroke:#000000;stroke-width:0.264583px;stroke-linecap:butt;stroke-linejoin:miter;stroke-opacity:1"
         d="m 31.453494,134.95534 c 0,0 -10.163748,0.6014 -6.615457,-7.21687 3.548291,-7.81826 7.096581,-15.33583 7.096581,-17.74145 0,-2.40562 -2.706322,0.96225 -6.735738,5.47279 -4.029415,4.51054 -9.562344,11.24627 -8.419674,13.59176 1.14267,2.34548 2.104919,5.3525 6.074193,5.71334 3.969276,0.36085 8.600095,0.18043 8.600095,0.18043 z"
         id="path913" />
      <path
         style="fill:#e98f37;fill-opacity:1;stroke:#000000;stroke-width:0.264583px;stroke-linecap:butt;stroke-linejoin:miter;stroke-opacity:1"
         d="m 34.804269,134.94117 c 0,0 10.163748,0.6014 6.615457,-7.21687 -3.548291,-7.81826 -7.096581,-15.33583 -7.096581,-17.74145 0,-2.40562 2.706322,0.96225 6.735738,5.47279 4.029415,4.51054 9.562344,11.24627 8.419674,13.59176 -1.14267,2.34548 -2.104919,5.3525 -6.074193,5.71334 -3.969276,0.36085 -8.600095,0.18043 -8.600095,0.18043 z"
         id="path913-9" />
      <path
         style="fill:#6d6358;fill-opacity:1;stroke:none;stroke-width:0.265;stroke-linecap:butt;stroke-linejoin:miter;stroke-miterlimit:4;stroke-dasharray:none;stroke-opacity:1"
         d="m 16.117661,142.65332 c 0,0 5.532928,54.84816 9.863046,61.34334 4.330118,6.49517 -0.240562,-0.12028 -0.841968,-3.72871 -0.601405,-3.60843 -8.05883,-58.33631 -8.05883,-58.33631 z"
         id="path5847" />
      <path
         style="fill:#6d6358;fill-opacity:1;stroke:none;stroke-width:0.265;stroke-linecap:butt;stroke-linejoin:miter;stroke-miterlimit:4;stroke-dasharray:none;stroke-opacity:1"
         d="m 51.637904,142.65332 c 0,0 -5.532928,54.84816 -9.863046,61.34334 -4.330118,6.49517 0.240562,-0.12028 0.841968,-3.72871 0.601405,-3.60843 8.05883,-58.33631 8.05883,-58.33631 z"
         id="path7001" />
      <path
         style="fill:#353535;fill-opacity:1;stroke:none;stroke-width:0.264583px;stroke-linecap:butt;stroke-linejoin:miter;stroke-opacity:1"
         d="m 31.03251,143.85613 c 0,0 0.776767,5.57943 0.86182,11.7882 0.08505,6.20876 1.19072,56.72938 1.19072,56.72938 0,0 0.42526,-56.81443 0.51031,-60.2165 0.08505,-3.40206 0.59536,-8.50515 1.10567,-8.93041 0.51031,-0.42526 -4.50773,-0.3402 -4.50773,-0.3402 z"
         id="path7933" />
    </g>
  </g>
</svg>
